<mxfile host="app.diagrams.net" modified="2024-03-10T06:04:54.937Z" agent="Mozilla/5.0 (Windows NT 10.0; Win64; x64) AppleWebKit/537.36 (KHTML, like Gecko) Chrome/122.0.0.0 Safari/537.36" etag="9g-Lppl70ZlTf14D0IFN" version="24.0.3" type="github">
  <diagram name="Page-1" id="bFb_gdLJ_TljzMRMGZM4">
    <mxGraphModel dx="139" dy="538" grid="1" gridSize="10" guides="1" tooltips="1" connect="1" arrows="1" fold="1" page="1" pageScale="1" pageWidth="850" pageHeight="1100" math="0" shadow="0">
      <root>
        <mxCell id="0" />
        <mxCell id="1" parent="0" />
        <mxCell id="9sVnv1eRb8PggVpidkJo-1" style="edgeStyle=orthogonalEdgeStyle;rounded=0;orthogonalLoop=1;jettySize=auto;html=1;entryX=0.5;entryY=0;entryDx=0;entryDy=0;endArrow=none;endFill=0;" edge="1" parent="1" source="9sVnv1eRb8PggVpidkJo-7" target="9sVnv1eRb8PggVpidkJo-10">
          <mxGeometry relative="1" as="geometry" />
        </mxCell>
        <mxCell id="9sVnv1eRb8PggVpidkJo-2" style="edgeStyle=orthogonalEdgeStyle;rounded=0;orthogonalLoop=1;jettySize=auto;html=1;startArrow=openThin;startFill=0;endArrow=openThin;endFill=0;" edge="1" parent="1" source="9sVnv1eRb8PggVpidkJo-7" target="9sVnv1eRb8PggVpidkJo-9">
          <mxGeometry relative="1" as="geometry" />
        </mxCell>
        <mxCell id="9sVnv1eRb8PggVpidkJo-3" value="&lt;p style=&quot;line-height: 0%; font-size: 3px;&quot;&gt;&lt;span style=&quot;font-size: 3px;&quot;&gt;Acknowledgement for connection with port&lt;/span&gt;&lt;/p&gt;&lt;div style=&quot;line-height: 0%; font-size: 3px;&quot;&gt;&lt;span style=&quot;font-size: 3px;&quot;&gt;ROS2 Protocol &lt;b&gt;RJ45&lt;/b&gt;&lt;/span&gt;&lt;/div&gt;&lt;p style=&quot;font-size: 3px;&quot;&gt;&lt;/p&gt;" style="edgeLabel;html=1;align=center;verticalAlign=middle;resizable=0;points=[];spacing=0;spacingBottom=-6;spacingLeft=-1;spacingTop=-5;fontSize=3;" vertex="1" connectable="0" parent="9sVnv1eRb8PggVpidkJo-2">
          <mxGeometry x="-0.03" y="-1" relative="1" as="geometry">
            <mxPoint x="13" y="6" as="offset" />
          </mxGeometry>
        </mxCell>
        <mxCell id="9sVnv1eRb8PggVpidkJo-4" style="edgeStyle=orthogonalEdgeStyle;rounded=0;orthogonalLoop=1;jettySize=auto;html=1;entryX=0;entryY=0.5;entryDx=0;entryDy=0;endArrow=none;endFill=0;" edge="1" parent="1" source="9sVnv1eRb8PggVpidkJo-7" target="9sVnv1eRb8PggVpidkJo-13">
          <mxGeometry relative="1" as="geometry">
            <Array as="points">
              <mxPoint x="1215.4" y="127.72" />
              <mxPoint x="1215.4" y="150.72" />
            </Array>
          </mxGeometry>
        </mxCell>
        <mxCell id="9sVnv1eRb8PggVpidkJo-5" value="&lt;font style=&quot;font-size: 4px;&quot;&gt;Acknowledgement for connection with port&lt;/font&gt;" style="edgeStyle=orthogonalEdgeStyle;rounded=0;orthogonalLoop=1;jettySize=auto;html=1;entryX=0.25;entryY=0;entryDx=0;entryDy=0;startArrow=openThin;startFill=0;endArrow=openThin;endFill=0;" edge="1" parent="1" source="9sVnv1eRb8PggVpidkJo-7" target="9sVnv1eRb8PggVpidkJo-18">
          <mxGeometry x="0.0544" y="10" relative="1" as="geometry">
            <Array as="points">
              <mxPoint x="1193.4" y="67.72" />
              <mxPoint x="1261.4" y="67.72" />
            </Array>
            <mxPoint as="offset" />
          </mxGeometry>
        </mxCell>
        <mxCell id="9sVnv1eRb8PggVpidkJo-6" value="&lt;div&gt;&lt;span style=&quot;font-size: 4px;&quot;&gt;Acknowledgement for connection with port&lt;/span&gt;&lt;br&gt;&lt;/div&gt;" style="edgeStyle=orthogonalEdgeStyle;rounded=0;orthogonalLoop=1;jettySize=auto;html=1;startArrow=openThin;startFill=0;endArrow=openThin;endFill=0;" edge="1" parent="1" source="9sVnv1eRb8PggVpidkJo-7" target="9sVnv1eRb8PggVpidkJo-21">
          <mxGeometry x="0.066" y="-16" relative="1" as="geometry">
            <Array as="points">
              <mxPoint x="1178.4" y="113.72" />
              <mxPoint x="1178.4" y="113.72" />
            </Array>
            <mxPoint as="offset" />
          </mxGeometry>
        </mxCell>
        <mxCell id="9sVnv1eRb8PggVpidkJo-7" value="" style="sketch=0;pointerEvents=1;shadow=0;dashed=0;html=1;strokeColor=none;fillColor=#434445;aspect=fixed;labelPosition=center;verticalLabelPosition=bottom;verticalAlign=top;align=center;outlineConnect=0;shape=mxgraph.vvd.machine;fontSize=4;" vertex="1" parent="1">
          <mxGeometry x="1185.4" y="91.27000000000001" width="16.4" height="40" as="geometry" />
        </mxCell>
        <mxCell id="9sVnv1eRb8PggVpidkJo-8" style="edgeStyle=orthogonalEdgeStyle;rounded=0;orthogonalLoop=1;jettySize=auto;html=1;entryX=0.5;entryY=1;entryDx=0;entryDy=0;endArrow=none;endFill=0;" edge="1" parent="1" source="9sVnv1eRb8PggVpidkJo-9" target="9sVnv1eRb8PggVpidkJo-19">
          <mxGeometry relative="1" as="geometry">
            <Array as="points">
              <mxPoint x="1315.4" y="135.72" />
              <mxPoint x="1315.4" y="107.72" />
              <mxPoint x="1316.4" y="107.72" />
            </Array>
          </mxGeometry>
        </mxCell>
        <mxCell id="9sVnv1eRb8PggVpidkJo-9" value="" style="sketch=0;outlineConnect=0;fontColor=#232F3E;gradientColor=none;fillColor=#232F3D;strokeColor=none;dashed=0;verticalLabelPosition=top;verticalAlign=bottom;align=center;html=1;fontSize=4;fontStyle=0;aspect=fixed;pointerEvents=1;shape=mxgraph.aws4.camera2;labelPosition=center;" vertex="1" parent="1">
          <mxGeometry x="1285.5" y="127.72" width="20.69" height="16.45" as="geometry" />
        </mxCell>
        <mxCell id="9sVnv1eRb8PggVpidkJo-10" value="Suction" style="rounded=0;whiteSpace=wrap;html=1;fontSize=4;" vertex="1" parent="1">
          <mxGeometry x="1181.5" y="175.82" width="24.21" height="10" as="geometry" />
        </mxCell>
        <mxCell id="9sVnv1eRb8PggVpidkJo-11" style="edgeStyle=orthogonalEdgeStyle;rounded=0;orthogonalLoop=1;jettySize=auto;html=1;entryX=0.5;entryY=1;entryDx=0;entryDy=0;endArrow=none;endFill=0;" edge="1" parent="1" source="9sVnv1eRb8PggVpidkJo-13" target="9sVnv1eRb8PggVpidkJo-22">
          <mxGeometry relative="1" as="geometry" />
        </mxCell>
        <mxCell id="9sVnv1eRb8PggVpidkJo-12" style="edgeStyle=orthogonalEdgeStyle;rounded=0;orthogonalLoop=1;jettySize=auto;html=1;entryX=0.5;entryY=1;entryDx=0;entryDy=0;endArrow=none;endFill=0;" edge="1" parent="1" source="9sVnv1eRb8PggVpidkJo-13" target="9sVnv1eRb8PggVpidkJo-23">
          <mxGeometry relative="1" as="geometry" />
        </mxCell>
        <mxCell id="9sVnv1eRb8PggVpidkJo-13" value="RF(1) Generator" style="rounded=0;whiteSpace=wrap;html=1;fontSize=4;" vertex="1" parent="1">
          <mxGeometry x="1221.4" y="144.17" width="38.59" height="13.55" as="geometry" />
        </mxCell>
        <mxCell id="9sVnv1eRb8PggVpidkJo-14" value="&lt;font style=&quot;font-size: 5px;&quot;&gt;UDP Protocol&lt;/font&gt;" style="edgeStyle=orthogonalEdgeStyle;rounded=0;orthogonalLoop=1;jettySize=auto;html=1;entryX=0;entryY=0.5;entryDx=0;entryDy=0;endArrow=none;endFill=0;exitX=0.5;exitY=0;exitDx=0;exitDy=0;" edge="1" parent="1" source="9sVnv1eRb8PggVpidkJo-18" target="9sVnv1eRb8PggVpidkJo-20">
          <mxGeometry x="0.5598" relative="1" as="geometry">
            <Array as="points">
              <mxPoint x="1267.4" y="71.72" />
              <mxPoint x="1267.4" y="42.72" />
            </Array>
            <mxPoint as="offset" />
          </mxGeometry>
        </mxCell>
        <mxCell id="9sVnv1eRb8PggVpidkJo-15" style="edgeStyle=orthogonalEdgeStyle;rounded=0;orthogonalLoop=1;jettySize=auto;html=1;entryX=0.75;entryY=1;entryDx=0;entryDy=0;endArrow=none;endFill=0;" edge="1" parent="1" source="9sVnv1eRb8PggVpidkJo-18" target="9sVnv1eRb8PggVpidkJo-19">
          <mxGeometry relative="1" as="geometry">
            <Array as="points">
              <mxPoint x="1298.4" y="92.72" />
              <mxPoint x="1323.4" y="92.72" />
            </Array>
          </mxGeometry>
        </mxCell>
        <mxCell id="9sVnv1eRb8PggVpidkJo-16" style="edgeStyle=orthogonalEdgeStyle;rounded=0;orthogonalLoop=1;jettySize=auto;html=1;entryX=0.75;entryY=1;entryDx=0;entryDy=0;endArrow=none;endFill=0;" edge="1" parent="1" source="9sVnv1eRb8PggVpidkJo-18" target="9sVnv1eRb8PggVpidkJo-22">
          <mxGeometry relative="1" as="geometry">
            <Array as="points">
              <mxPoint x="1311.4" y="92.72" />
              <mxPoint x="1367.4" y="92.72" />
            </Array>
          </mxGeometry>
        </mxCell>
        <mxCell id="9sVnv1eRb8PggVpidkJo-17" style="edgeStyle=orthogonalEdgeStyle;rounded=0;orthogonalLoop=1;jettySize=auto;html=1;entryX=0.75;entryY=1;entryDx=0;entryDy=0;endArrow=none;endFill=0;" edge="1" parent="1" source="9sVnv1eRb8PggVpidkJo-18" target="9sVnv1eRb8PggVpidkJo-23">
          <mxGeometry relative="1" as="geometry">
            <Array as="points">
              <mxPoint x="1331.4" y="92.72" />
              <mxPoint x="1408.4" y="92.72" />
            </Array>
          </mxGeometry>
        </mxCell>
        <mxCell id="9sVnv1eRb8PggVpidkJo-18" value="ECB Hub" style="shape=image;html=1;verticalAlign=top;verticalLabelPosition=bottom;labelBackgroundColor=#ffffff;imageAspect=0;aspect=fixed;image=https://cdn1.iconfinder.com/data/icons/bootstrap-vol-3/16/motherboard-128.png;labelPosition=center;align=center;fontSize=4;" vertex="1" parent="1">
          <mxGeometry x="1255.94" y="81.27000000000001" width="22.05" height="22.05" as="geometry" />
        </mxCell>
        <mxCell id="9sVnv1eRb8PggVpidkJo-19" value="RBA1" style="rounded=0;whiteSpace=wrap;html=1;fontSize=4;" vertex="1" parent="1">
          <mxGeometry x="1301.19" y="77.72" width="30" height="10" as="geometry" />
        </mxCell>
        <mxCell id="9sVnv1eRb8PggVpidkJo-20" value="EMS" style="rounded=0;whiteSpace=wrap;html=1;fontSize=4;" vertex="1" parent="1">
          <mxGeometry x="1271.98" y="37.72" width="34.21" height="10" as="geometry" />
        </mxCell>
        <mxCell id="9sVnv1eRb8PggVpidkJo-21" value="&lt;font style=&quot;font-size: 4px;&quot;&gt;User Console&lt;/font&gt;" style="sketch=0;pointerEvents=1;shadow=0;dashed=0;html=1;strokeColor=none;fillColor=#434445;aspect=fixed;labelPosition=center;verticalLabelPosition=top;verticalAlign=bottom;align=center;outlineConnect=0;shape=mxgraph.vvd.monitor;" vertex="1" parent="1">
          <mxGeometry x="1058.4" y="95.16999999999999" width="38.82" height="36.1" as="geometry" />
        </mxCell>
        <mxCell id="9sVnv1eRb8PggVpidkJo-22" value="RBA2" style="rounded=0;whiteSpace=wrap;html=1;fontSize=4;" vertex="1" parent="1">
          <mxGeometry x="1345.4" y="77.72" width="29" height="10" as="geometry" />
        </mxCell>
        <mxCell id="9sVnv1eRb8PggVpidkJo-23" value="RBA3" style="rounded=0;whiteSpace=wrap;html=1;fontSize=4;" vertex="1" parent="1">
          <mxGeometry x="1385.4" y="77.72" width="30" height="10" as="geometry" />
        </mxCell>
        <mxCell id="9sVnv1eRb8PggVpidkJo-24" value="&lt;font style=&quot;font-size: 4px;&quot;&gt;Request to ECB/ Connection Port&lt;/font&gt;" style="text;html=1;align=center;verticalAlign=middle;whiteSpace=wrap;rounded=0;" vertex="1" parent="1">
          <mxGeometry x="1138.4" y="67.72" width="70" height="10" as="geometry" />
        </mxCell>
        <mxCell id="9sVnv1eRb8PggVpidkJo-25" value="&lt;p style=&quot;line-height: 70%;&quot;&gt;&lt;font style=&quot;font-size: 4px;&quot;&gt;Port Request connection to CCU&lt;/font&gt;&lt;/p&gt;" style="text;html=1;align=center;verticalAlign=middle;whiteSpace=wrap;rounded=0;opacity=90;fontSize=3;textOpacity=90;spacing=-2;" vertex="1" parent="1">
          <mxGeometry x="1198.4" y="102.16999999999999" width="69.69" height="10" as="geometry" />
        </mxCell>
        <mxCell id="9sVnv1eRb8PggVpidkJo-26" value="&lt;p style=&quot;line-height: 70%; font-size: 3px;&quot;&gt;&lt;font style=&quot;font-size: 3px;&quot;&gt;HDMI 2.0a&lt;/font&gt;&lt;/p&gt;" style="text;html=1;align=center;verticalAlign=middle;whiteSpace=wrap;rounded=0;opacity=90;fontSize=3;textOpacity=90;spacing=-2;" vertex="1" parent="1">
          <mxGeometry x="1247.98" y="134.17" width="24" height="10" as="geometry" />
        </mxCell>
        <mxCell id="9sVnv1eRb8PggVpidkJo-27" style="edgeStyle=orthogonalEdgeStyle;rounded=0;orthogonalLoop=1;jettySize=auto;html=1;endArrow=none;endFill=0;" edge="1" parent="1" source="9sVnv1eRb8PggVpidkJo-28" target="9sVnv1eRb8PggVpidkJo-21">
          <mxGeometry relative="1" as="geometry" />
        </mxCell>
        <mxCell id="9sVnv1eRb8PggVpidkJo-28" value="&lt;font style=&quot;font-size: 4px;&quot;&gt;Hospital VR Headset&lt;/font&gt;" style="shape=image;html=1;verticalAlign=top;verticalLabelPosition=bottom;labelBackgroundColor=#ffffff;imageAspect=0;aspect=fixed;image=https://cdn2.iconfinder.com/data/icons/business-and-education-1/512/142_VR_googles_headset_reality_virtual_technology_smart-128.png" vertex="1" parent="1">
          <mxGeometry x="949.9999999999999" y="127.72" width="32.55" height="32.55" as="geometry" />
        </mxCell>
        <mxCell id="9sVnv1eRb8PggVpidkJo-29" style="edgeStyle=orthogonalEdgeStyle;rounded=0;orthogonalLoop=1;jettySize=auto;html=1;endArrow=none;endFill=0;" edge="1" parent="1" source="9sVnv1eRb8PggVpidkJo-30" target="9sVnv1eRb8PggVpidkJo-21">
          <mxGeometry relative="1" as="geometry" />
        </mxCell>
        <mxCell id="9sVnv1eRb8PggVpidkJo-30" value="&lt;font style=&quot;font-size: 4px;&quot;&gt;User Personal Device&lt;/font&gt;" style="sketch=0;pointerEvents=1;shadow=0;dashed=0;html=1;strokeColor=none;fillColor=#434445;aspect=fixed;labelPosition=center;verticalLabelPosition=bottom;verticalAlign=top;align=center;outlineConnect=0;shape=mxgraph.vvd.phone;" vertex="1" parent="1">
          <mxGeometry x="957.42" y="204.17" width="17.7" height="30" as="geometry" />
        </mxCell>
        <mxCell id="9sVnv1eRb8PggVpidkJo-31" value="&lt;p style=&quot;line-height: 70%;&quot;&gt;&lt;font style=&quot;font-size: 4px;&quot;&gt;Port Request connection to V01&lt;/font&gt;&lt;/p&gt;" style="text;html=1;align=center;verticalAlign=middle;whiteSpace=wrap;rounded=0;opacity=90;fontSize=3;textOpacity=90;spacing=-2;" vertex="1" parent="1">
          <mxGeometry x="1125.4" y="117.72" width="60" height="10" as="geometry" />
        </mxCell>
        <mxCell id="9sVnv1eRb8PggVpidkJo-32" value="" style="rounded=0;whiteSpace=wrap;html=1;dashed=1;dashPattern=8 8;fillColor=none;" vertex="1" parent="1">
          <mxGeometry x="1175.85" y="30" width="240" height="166.45" as="geometry" />
        </mxCell>
      </root>
    </mxGraphModel>
  </diagram>
</mxfile>
